<?xml version="1.0" encoding="utf-8"?>
<!-- Generator: Adobe Illustrator 18.0.0, SVG Export Plug-In . SVG Version: 6.00 Build 0)  -->
<!DOCTYPE svg PUBLIC "-//W3C//DTD SVG 1.1//EN" "http://www.w3.org/Graphics/SVG/1.1/DTD/svg11.dtd">
<svg version="1.1" id="Layer_1" focusable="false" xmlns="http://www.w3.org/2000/svg" xmlns:xlink="http://www.w3.org/1999/xlink"
	 x="0px" y="0px" viewBox="0 0 612 792" enable-background="new 0 0 612 792" xml:space="preserve">
<path fill="#0E1281" d="M597.7,367.3h-35.1c-13.2-119.7-108.2-214.7-227.9-227.9v-35.1c0-7.9-6.4-14.3-14.3-14.3h-28.7
	c-7.9,0-14.3,6.4-14.3,14.3v35.1C157.6,152.6,62.6,247.6,49.4,367.3H14.3c-7.9,0-14.3,6.4-14.3,14.3v28.7c0,7.9,6.4,14.3,14.3,14.3
	h35.1c13.2,119.7,108.2,214.7,227.9,227.9v35.1c0,7.9,6.4,14.3,14.3,14.3h28.7c7.9,0,14.3-6.4,14.3-14.3v-35.1
	c119.7-13.2,214.7-108.2,227.9-227.9h35.1c7.9,0,14.3-6.4,14.3-14.3v-28.7C612,373.7,605.6,367.3,597.7,367.3z M334.7,594.8v-50.6
	c0-7.9-6.4-14.3-14.3-14.3h-28.7c-7.9,0-14.3,6.4-14.3,14.3v50.6c-87.9-12.5-157.6-82.2-170.1-170.1h50.6c7.9,0,14.3-6.4,14.3-14.3
	v-28.7c0-7.9-6.4-14.3-14.3-14.3h-50.6c12.5-87.9,82.2-157.6,170.1-170.1v50.6c0,7.9,6.4,14.3,14.3,14.3h28.7
	c7.9,0,14.3-6.4,14.3-14.3v-50.6c87.9,12.5,157.6,82.2,170.1,170.1h-50.6c-7.9,0-14.3,6.4-14.3,14.3v28.7c0,7.9,6.4,14.3,14.3,14.3
	h50.6C492.3,512.6,422.6,582.3,334.7,594.8z M344.3,396c0,21.1-17.1,38.3-38.3,38.3s-38.3-17.1-38.3-38.3s17.1-38.3,38.3-38.3
	S344.3,374.9,344.3,396z"/>
</svg>
