<?xml version="1.0" encoding="iso-8859-1"?>
<!-- Generator: Adobe Illustrator 19.0.0, SVG Export Plug-In . SVG Version: 6.00 Build 0)  -->
<svg version="1.1" id="Layer_1" xmlns="http://www.w3.org/2000/svg" xmlns:xlink="http://www.w3.org/1999/xlink" x="0px" y="0px"
	 viewBox="0 0 512 512" style="enable-background:new 0 0 512 512;" xml:space="preserve">
<circle style="fill:#4314c6;" cx="256" cy="256" r="256"/>
<path style="fill:#4314c6;" d="M509.495,291.811L333.567,115.883l-19.356,50.073l-57.063-57.063l-72.69,72.692L256,426.667
	l74.352,74.352C424.412,472.512,495.561,391.339,509.495,291.811z"/>
<path style="fill:#fff;" d="M256,85.333c-62.838,0-113.778,50.94-113.778,113.778C142.222,291.34,256,426.667,256,426.667
	s113.778-134.465,113.778-227.556C369.778,136.273,318.838,85.333,256,85.333z M256,241.778c-23.564,0-42.667-19.103-42.667-42.667
	c0-23.564,19.103-42.667,42.667-42.667c23.564,0,42.667,19.103,42.667,42.667C298.667,222.675,279.564,241.778,256,241.778z"/>
<path style="fill:#fff;" d="M369.778,199.111c0-62.838-50.94-113.778-113.778-113.778c-0.193,0-0.381,0.014-0.574,0.014v71.111
	c0.191-0.002,0.381-0.014,0.574-0.014c23.564,0,42.667,19.103,42.667,42.667S279.564,241.778,256,241.778
	c-0.193,0-0.383-0.012-0.574-0.014v184.213c0.365,0.441,0.574,0.69,0.574,0.69S369.778,292.202,369.778,199.111z"/>
<g>
</g>
<g>
</g>
</svg>
