<?xml version="1.0"?>
<svg xmlns="http://www.w3.org/2000/svg" height="512px" viewBox="0 0 327 327.688" width="512px"><path d="m164.027344 0c-90.253906 0-163.683594 73.582031-163.683594 163.847656s73.421875 163.839844 163.683594 163.839844h.011718c90.253907 0 163.683594-73.582031 163.683594-163.847656s-73.433594-163.839844-163.695312-163.839844zm.003906 307.6875h-.003906c-79.226563 0-143.683594-64.613281-143.683594-143.847656 0-79.238282 64.457031-143.761719 143.695312-143.761719 79.238282 0 143.675782 64.570313 143.675782 143.808594s-64.453125 143.800781-143.683594 143.800781zm0 0" fill="#FFFFFF"/><path d="m235.027344 153.6875h-143c-5.523438 0-10 4.476562-10 10s4.476562 10 10 10h143c5.523437 0 10-4.476562 10-10s-4.476563-10-10-10zm0 0" fill="#FFFFFF"/><path d="m235.027344 107.6875h-143c-5.523438 0-10 4.476562-10 10s4.476562 10 10 10h143c5.523437 0 10-4.476562 10-10s-4.476563-10-10-10zm0 0" fill="#FFFFFF"/><path d="m235.027344 199.6875h-143c-5.523438 0-10 4.476562-10 10s4.476562 10 10 10h143c5.523437 0 10-4.476562 10-10s-4.476563-10-10-10zm0 0" fill="#FFFFFF"/></svg>
